<svg xmlns="http://www.w3.org/2000/svg" xmlns:xlink="http://www.w3.org/1999/xlink" version="1.1" width="1000" height="1000" viewBox="0 0 1000 1000" xml:space="preserve">
<desc>Created with Fabric.js 3.5.0</desc>
<defs>
</defs>
<rect x="0" y="0" width="100%" height="100%" fill="rgba(255,255,255,0)"/>
<g transform="matrix(0.293 0 0 -0.3306 488.1658 498.5291)" id="185587">
<path style="stroke: none; stroke-width: 1; stroke-dasharray: none; stroke-linecap: butt; stroke-dashoffset: 0; stroke-linejoin: miter; stroke-miterlimit: 4; is-custom-font: none; font-file-url: none; fill: rgb(0,0,0); fill-rule: nonzero; opacity: 1;" vector-effect="non-scaling-stroke" transform=" translate(-3167.0519, -1932.5451)" d="M 3045 3474 c -237 -36 -444 -153 -530 -299 c -25 -44 -30 -62 -33 -145 c -5 -113 6 -159 54 -231 c 83 -125 274 -229 704 -383 c 465 -167 652 -243 770 -312 c 144 -84 277 -230 355 -389 c 132 -269 124 -606 -20 -840 c -39 -63 -163 -200 -173 -191 c -2 2 6 23 18 46 c 105 205 98 557 -15 780 c -67 132 -201 282 -323 363 c -130 85 -317 168 -581 257 c -544 182 -816 308 -919 425 c -93 106 -132 231 -132 423 c 0 176 31 285 116 405 c 19 26 31 47 27 47 c -3 0 -58 -35 -122 -77 c -154 -102 -358 -303 -455 -450 c -152 -230 -241 -464 -276 -730 c -18 -132 -8 -410 20 -538 c 57 -268 180 -522 350 -730 c 32 -38 75 -86 95 -105 l 38 -35 l -7 55 c -11 101 -19 434 -12 513 l 8 77 l 37 0 l 38 0 l 17 -106 c 36 -215 108 -364 250 -512 c 232 -243 560 -364 871 -323 c 212 29 380 129 483 289 c 68 107 97 259 73 387 c -46 250 -235 375 -906 600 c -221 74 -448 161 -540 208 c -166 83 -307 221 -388 382 c -84 168 -99 389 -38 575 c 23 70 82 187 111 220 l 21 25 l -5 -30 c -3 -16 -11 -55 -17 -85 c -15 -72 -4 -246 20 -330 c 72 -246 235 -433 483 -548 c 129 -61 273 -113 595 -216 c 344 -109 612 -247 747 -384 c 140 -141 209 -338 191 -551 c -17 -207 -99 -380 -258 -548 l -70 -74 l 84 36 c 307 131 570 347 752 617 c 66 99 160 293 197 406 c 160 494 87 1019 -201 1447 c -69 101 -175 228 -239 283 l -35 30 l 3 -205 c 5 -245 3 -255 -41 -251 l -32 3 l -12 90 c -16 111 -36 171 -81 249 c -62 106 -142 179 -267 244 c -192 100 -328 132 -585 137 c -102 2 -198 1 -215 -1 z" stroke-linecap="round"/>
</g>
</svg>